<?xml version="1.0" encoding="utf-8" standalone="no"?>
<!DOCTYPE svg PUBLIC "-//W3C//DTD SVG 1.1//EN"
  "http://www.w3.org/Graphics/SVG/1.1/DTD/svg11.dtd">
<!-- Created with matplotlib (https://matplotlib.org/) -->
<svg height="345.6pt" version="1.1" viewBox="0 0 460.8 345.6" width="460.8pt" xmlns="http://www.w3.org/2000/svg" xmlns:xlink="http://www.w3.org/1999/xlink">
 <metadata>
  <rdf:RDF xmlns:cc="http://creativecommons.org/ns#" xmlns:dc="http://purl.org/dc/elements/1.1/" xmlns:rdf="http://www.w3.org/1999/02/22-rdf-syntax-ns#">
   <cc:Work>
    <dc:type rdf:resource="http://purl.org/dc/dcmitype/StillImage"/>
    <dc:date>2021-06-07T13:23:23.513091</dc:date>
    <dc:format>image/svg+xml</dc:format>
    <dc:creator>
     <cc:Agent>
      <dc:title>Matplotlib v3.3.4, https://matplotlib.org/</dc:title>
     </cc:Agent>
    </dc:creator>
   </cc:Work>
  </rdf:RDF>
 </metadata>
 <defs>
  <style type="text/css">*{stroke-linecap:butt;stroke-linejoin:round;}</style>
 </defs>
 <g id="figure_1">
  <g id="patch_1">
   <path d="M 0 345.6 
L 460.8 345.6 
L 460.8 0 
L 0 0 
z
" style="fill:#ffffff;"/>
  </g>
  <g id="axes_1">
   <g id="patch_2">
    <path d="M 57.6 307.584 
L 414.72 307.584 
L 414.72 41.472 
L 57.6 41.472 
z
" style="fill:#ffffff;"/>
   </g>
   <g id="matplotlib.axis_1">
    <g id="xtick_1">
     <g id="line2d_1">
      <defs>
       <path d="M 0 0 
L 0 3.5 
" id="ma02410ebdc" style="stroke:#000000;stroke-width:0.8;"/>
      </defs>
      <g>
       <use style="stroke:#000000;stroke-width:0.8;" x="57.6" xlink:href="#ma02410ebdc" y="307.584"/>
      </g>
     </g>
     <g id="text_1">
      <!-- $\mathdefault{0.0}$ -->
      <g transform="translate(52.189655 320.118802)scale(0.08 -0.08)">
       <defs>
        <path d="M 42 31.640625 
C 42 37.75 41.90625 48.125 37.703125 56.109375 
C 34 63.109375 28.09375 65.59375 22.90625 65.59375 
C 18.09375 65.59375 12 63.40625 8.203125 56.203125 
C 4.203125 48.71875 3.796875 39.4375 3.796875 31.640625 
C 3.796875 25.953125 3.90625 17.28125 7 9.671875 
C 11.296875 -0.609375 19 -2 22.90625 -2 
C 27.5 -2 34.5 -0.109375 38.59375 9.375 
C 41.59375 16.28125 42 24.359375 42 31.640625 
z
M 22.90625 -0.40625 
C 16.5 -0.40625 12.703125 5.078125 11.296875 12.6875 
C 10.203125 18.5625 10.203125 27.15625 10.203125 32.75 
C 10.203125 40.4375 10.203125 46.828125 11.5 52.921875 
C 13.40625 61.390625 19 64 22.90625 64 
C 27 64 32.296875 61.296875 34.203125 53.125 
C 35.5 47.4375 35.59375 40.734375 35.59375 32.75 
C 35.59375 26.25 35.59375 18.265625 34.40625 12.375 
C 32.296875 1.484375 26.40625 -0.40625 22.90625 -0.40625 
z
" id="CMR17-48"/>
        <path d="M 18.40625 4.796875 
C 18.40625 7.6875 16 9.671875 13.59375 9.671875 
C 10.703125 9.671875 8.703125 7.28125 8.703125 4.890625 
C 8.703125 2 11.09375 0 13.5 0 
C 16.40625 0 18.40625 2.390625 18.40625 4.796875 
z
" id="CMMI12-58"/>
       </defs>
       <use transform="scale(0.996264)" xlink:href="#CMR17-48"/>
       <use transform="translate(45.690477 0)scale(0.996264)" xlink:href="#CMMI12-58"/>
       <use transform="translate(72.787654 0)scale(0.996264)" xlink:href="#CMR17-48"/>
      </g>
     </g>
    </g>
    <g id="xtick_2">
     <g id="line2d_2">
      <g>
       <use style="stroke:#000000;stroke-width:0.8;" x="129.024" xlink:href="#ma02410ebdc" y="307.584"/>
      </g>
     </g>
     <g id="text_2">
      <!-- $\mathdefault{0.2}$ -->
      <g transform="translate(123.613655 320.118802)scale(0.08 -0.08)">
       <defs>
        <path d="M 41.703125 15.453125 
L 39.90625 15.453125 
C 38.90625 8.375 38.09375 7.171875 37.703125 6.5625 
C 37.203125 5.765625 30 5.765625 28.59375 5.765625 
L 9.40625 5.765625 
C 13 9.671875 20 16.75 28.5 24.953125 
C 34.59375 30.734375 41.703125 37.53125 41.703125 47.421875 
C 41.703125 59.21875 32.296875 66 21.796875 66 
C 10.796875 66 4.09375 56.3125 4.09375 47.34375 
C 4.09375 43.4375 7 42.9375 8.203125 42.9375 
C 9.203125 42.9375 12.203125 43.546875 12.203125 47.03125 
C 12.203125 50.109375 9.59375 51 8.203125 51 
C 7.59375 51 7 50.90625 6.59375 50.703125 
C 8.5 59.21875 14.296875 63.40625 20.40625 63.40625 
C 29.09375 63.40625 34.796875 56.515625 34.796875 47.421875 
C 34.796875 38.734375 29.703125 31.25 24 24.75 
L 4.09375 2.28125 
L 4.09375 0 
L 39.296875 0 
z
" id="CMR17-50"/>
       </defs>
       <use transform="scale(0.996264)" xlink:href="#CMR17-48"/>
       <use transform="translate(45.690477 0)scale(0.996264)" xlink:href="#CMMI12-58"/>
       <use transform="translate(72.787654 0)scale(0.996264)" xlink:href="#CMR17-50"/>
      </g>
     </g>
    </g>
    <g id="xtick_3">
     <g id="line2d_3">
      <g>
       <use style="stroke:#000000;stroke-width:0.8;" x="200.448" xlink:href="#ma02410ebdc" y="307.584"/>
      </g>
     </g>
     <g id="text_3">
      <!-- $\mathdefault{0.4}$ -->
      <g transform="translate(195.037655 320.118802)scale(0.08 -0.08)">
       <defs>
        <path d="M 33.59375 64.40625 
C 33.59375 66.5 33.5 66.5 31.703125 66.5 
L 2 19.59375 
L 2 17 
L 27.796875 17 
L 27.796875 7.140625 
C 27.796875 3.5 27.59375 2.5 20.59375 2.5 
L 18.703125 2.5 
L 18.703125 0 
C 21.90625 0 27.296875 0 30.703125 0 
C 34.09375 0 39.5 0 42.703125 0 
L 42.703125 2.5 
L 40.796875 2.5 
C 33.796875 2.5 33.59375 3.5 33.59375 7.140625 
L 33.59375 17 
L 43.796875 17 
L 43.796875 19.59375 
L 33.59375 19.59375 
z
M 28.09375 57.859375 
L 28.09375 19.59375 
L 4 19.59375 
z
" id="CMR17-52"/>
       </defs>
       <use transform="scale(0.996264)" xlink:href="#CMR17-48"/>
       <use transform="translate(45.690477 0)scale(0.996264)" xlink:href="#CMMI12-58"/>
       <use transform="translate(72.787654 0)scale(0.996264)" xlink:href="#CMR17-52"/>
      </g>
     </g>
    </g>
    <g id="xtick_4">
     <g id="line2d_4">
      <g>
       <use style="stroke:#000000;stroke-width:0.8;" x="271.872" xlink:href="#ma02410ebdc" y="307.584"/>
      </g>
     </g>
     <g id="text_4">
      <!-- $\mathdefault{0.6}$ -->
      <g transform="translate(266.461655 320.118802)scale(0.08 -0.08)">
       <defs>
        <path d="M 10.59375 34 
C 10.59375 57.65625 21.796875 63 28.296875 63 
C 30.40625 63 35.5 62.640625 37.5 59 
C 35.90625 59 32.90625 59 32.90625 55.515625 
C 32.90625 52.828125 35.09375 51.921875 36.5 51.921875 
C 37.40625 51.921875 40.09375 52.3125 40.09375 55.625 
C 40.09375 61.78125 35.09375 65.296875 28.203125 65.296875 
C 16.296875 65.296875 3.796875 52.96875 3.796875 31 
C 3.796875 3.953125 15.09375 -2 23.09375 -2 
C 32.796875 -2 42 6.671875 42 20.046875 
C 42 32.515625 33.90625 41.59375 23.703125 41.59375 
C 17.59375 41.59375 13.09375 37.609375 10.59375 30.625 
z
M 23.09375 0.390625 
C 10.796875 0.390625 10.796875 18.75 10.796875 22.4375 
C 10.796875 29.625 14.203125 40 23.5 40 
C 25.203125 40 30.09375 40 33.40625 33.125 
C 35.203125 29.21875 35.203125 25.140625 35.203125 20.140625 
C 35.203125 14.75 35.203125 10.78125 33.09375 6.78125 
C 30.90625 2.671875 27.703125 0.390625 23.09375 0.390625 
z
" id="CMR17-54"/>
       </defs>
       <use transform="scale(0.996264)" xlink:href="#CMR17-48"/>
       <use transform="translate(45.690477 0)scale(0.996264)" xlink:href="#CMMI12-58"/>
       <use transform="translate(72.787654 0)scale(0.996264)" xlink:href="#CMR17-54"/>
      </g>
     </g>
    </g>
    <g id="xtick_5">
     <g id="line2d_5">
      <g>
       <use style="stroke:#000000;stroke-width:0.8;" x="343.296" xlink:href="#ma02410ebdc" y="307.584"/>
      </g>
     </g>
     <g id="text_5">
      <!-- $\mathdefault{0.8}$ -->
      <g transform="translate(337.885655 320.118802)scale(0.08 -0.08)">
       <defs>
        <path d="M 27.203125 35.375 
C 33.5 38.546875 39.90625 43.328125 39.90625 50.984375 
C 39.90625 60.015625 31.09375 65.296875 23 65.296875 
C 13.90625 65.296875 5.90625 58.734375 5.90625 49.6875 
C 5.90625 47.203125 6.5 42.921875 10.40625 39.140625 
C 11.40625 38.15625 15.59375 35.171875 18.296875 33.28125 
C 13.796875 30.984375 3.296875 25.53125 3.296875 14.59375 
C 3.296875 4.359375 13.09375 -2 22.796875 -2 
C 33.5 -2 42.5 5.65625 42.5 15.78125 
C 42.5 24.84375 36.40625 29.015625 32.40625 31.703125 
z
M 14.09375 44.09375 
C 13.296875 44.59375 9.296875 47.671875 9.296875 52.359375 
C 9.296875 58.421875 15.59375 63 22.796875 63 
C 30.703125 63 36.5 57.4375 36.5 50.96875 
C 36.5 41.703125 26.09375 36.421875 25.59375 36.421875 
C 25.5 36.421875 25.40625 36.421875 24.59375 37.03125 
z
M 32.5 23.734375 
C 34 22.640625 38.796875 19.375 38.796875 13.296875 
C 38.796875 5.953125 31.40625 0.390625 23 0.390625 
C 13.90625 0.390625 7 6.84375 7 14.6875 
C 7 22.546875 13.09375 29.09375 20 32.1875 
z
" id="CMR17-56"/>
       </defs>
       <use transform="scale(0.996264)" xlink:href="#CMR17-48"/>
       <use transform="translate(45.690477 0)scale(0.996264)" xlink:href="#CMMI12-58"/>
       <use transform="translate(72.787654 0)scale(0.996264)" xlink:href="#CMR17-56"/>
      </g>
     </g>
    </g>
    <g id="xtick_6">
     <g id="line2d_6">
      <g>
       <use style="stroke:#000000;stroke-width:0.8;" x="414.72" xlink:href="#ma02410ebdc" y="307.584"/>
      </g>
     </g>
     <g id="text_6">
      <!-- $\mathdefault{1.0}$ -->
      <g transform="translate(409.309655 320.118802)scale(0.08 -0.08)">
       <defs>
        <path d="M 26.59375 63.40625 
C 26.59375 65.5 26.5 65.5 25.09375 65.5 
C 21.203125 61.1875 15.296875 59.796875 9.703125 59.796875 
C 9.40625 59.796875 8.90625 59.796875 8.796875 59.5 
C 8.703125 59.296875 8.703125 59.09375 8.703125 57 
C 11.796875 57 17 57.59375 21 59.984375 
L 21 7.203125 
C 21 3.6875 20.796875 2.5 12.203125 2.5 
L 9.203125 2.5 
L 9.203125 0 
C 14 0 19 0 23.796875 0 
C 28.59375 0 33.59375 0 38.40625 0 
L 38.40625 2.5 
L 35.40625 2.5 
C 26.796875 2.5 26.59375 3.59375 26.59375 7.15625 
z
" id="CMR17-49"/>
       </defs>
       <use transform="scale(0.996264)" xlink:href="#CMR17-49"/>
       <use transform="translate(45.690477 0)scale(0.996264)" xlink:href="#CMMI12-58"/>
       <use transform="translate(72.787654 0)scale(0.996264)" xlink:href="#CMR17-48"/>
      </g>
     </g>
    </g>
   </g>
   <g id="matplotlib.axis_2">
    <g id="ytick_1">
     <g id="line2d_7">
      <defs>
       <path d="M 0 0 
L -3.5 0 
" id="mf728903745" style="stroke:#000000;stroke-width:0.8;"/>
      </defs>
      <g>
       <use style="stroke:#000000;stroke-width:0.8;" x="57.6" xlink:href="#mf728903745" y="307.584"/>
      </g>
     </g>
     <g id="text_7">
      <!-- $\mathdefault{0.0}$ -->
      <g transform="translate(39.77931 310.351401)scale(0.08 -0.08)">
       <use transform="scale(0.996264)" xlink:href="#CMR17-48"/>
       <use transform="translate(45.690477 0)scale(0.996264)" xlink:href="#CMMI12-58"/>
       <use transform="translate(72.787654 0)scale(0.996264)" xlink:href="#CMR17-48"/>
      </g>
     </g>
    </g>
    <g id="ytick_2">
     <g id="line2d_8">
      <g>
       <use style="stroke:#000000;stroke-width:0.8;" x="57.6" xlink:href="#mf728903745" y="254.3616"/>
      </g>
     </g>
     <g id="text_8">
      <!-- $\mathdefault{0.2}$ -->
      <g transform="translate(39.77931 257.129001)scale(0.08 -0.08)">
       <use transform="scale(0.996264)" xlink:href="#CMR17-48"/>
       <use transform="translate(45.690477 0)scale(0.996264)" xlink:href="#CMMI12-58"/>
       <use transform="translate(72.787654 0)scale(0.996264)" xlink:href="#CMR17-50"/>
      </g>
     </g>
    </g>
    <g id="ytick_3">
     <g id="line2d_9">
      <g>
       <use style="stroke:#000000;stroke-width:0.8;" x="57.6" xlink:href="#mf728903745" y="201.1392"/>
      </g>
     </g>
     <g id="text_9">
      <!-- $\mathdefault{0.4}$ -->
      <g transform="translate(39.77931 203.906601)scale(0.08 -0.08)">
       <use transform="scale(0.996264)" xlink:href="#CMR17-48"/>
       <use transform="translate(45.690477 0)scale(0.996264)" xlink:href="#CMMI12-58"/>
       <use transform="translate(72.787654 0)scale(0.996264)" xlink:href="#CMR17-52"/>
      </g>
     </g>
    </g>
    <g id="ytick_4">
     <g id="line2d_10">
      <g>
       <use style="stroke:#000000;stroke-width:0.8;" x="57.6" xlink:href="#mf728903745" y="147.9168"/>
      </g>
     </g>
     <g id="text_10">
      <!-- $\mathdefault{0.6}$ -->
      <g transform="translate(39.77931 150.684201)scale(0.08 -0.08)">
       <use transform="scale(0.996264)" xlink:href="#CMR17-48"/>
       <use transform="translate(45.690477 0)scale(0.996264)" xlink:href="#CMMI12-58"/>
       <use transform="translate(72.787654 0)scale(0.996264)" xlink:href="#CMR17-54"/>
      </g>
     </g>
    </g>
    <g id="ytick_5">
     <g id="line2d_11">
      <g>
       <use style="stroke:#000000;stroke-width:0.8;" x="57.6" xlink:href="#mf728903745" y="94.6944"/>
      </g>
     </g>
     <g id="text_11">
      <!-- $\mathdefault{0.8}$ -->
      <g transform="translate(39.77931 97.461801)scale(0.08 -0.08)">
       <use transform="scale(0.996264)" xlink:href="#CMR17-48"/>
       <use transform="translate(45.690477 0)scale(0.996264)" xlink:href="#CMMI12-58"/>
       <use transform="translate(72.787654 0)scale(0.996264)" xlink:href="#CMR17-56"/>
      </g>
     </g>
    </g>
    <g id="ytick_6">
     <g id="line2d_12">
      <g>
       <use style="stroke:#000000;stroke-width:0.8;" x="57.6" xlink:href="#mf728903745" y="41.472"/>
      </g>
     </g>
     <g id="text_12">
      <!-- $\mathdefault{1.0}$ -->
      <g transform="translate(39.77931 44.239401)scale(0.08 -0.08)">
       <use transform="scale(0.996264)" xlink:href="#CMR17-49"/>
       <use transform="translate(45.690477 0)scale(0.996264)" xlink:href="#CMMI12-58"/>
       <use transform="translate(72.787654 0)scale(0.996264)" xlink:href="#CMR17-48"/>
      </g>
     </g>
    </g>
   </g>
   <g id="patch_3">
    <path d="M 57.6 307.584 
L 57.6 41.472 
" style="fill:none;stroke:#000000;stroke-linecap:square;stroke-linejoin:miter;stroke-width:0.8;"/>
   </g>
   <g id="patch_4">
    <path d="M 414.72 307.584 
L 414.72 41.472 
" style="fill:none;stroke:#000000;stroke-linecap:square;stroke-linejoin:miter;stroke-width:0.8;"/>
   </g>
   <g id="patch_5">
    <path d="M 57.6 307.584 
L 414.72 307.584 
" style="fill:none;stroke:#000000;stroke-linecap:square;stroke-linejoin:miter;stroke-width:0.8;"/>
   </g>
   <g id="patch_6">
    <path d="M 57.6 41.472 
L 414.72 41.472 
" style="fill:none;stroke:#000000;stroke-linecap:square;stroke-linejoin:miter;stroke-width:0.8;"/>
   </g>
   <g id="text_13">
    <!-- $S^1 S^2 \mathbb{R}^1 \mathbb{R}^2 C T^2$ -->
    <g transform="translate(204.081237 35.472)scale(0.096 -0.096)">
     <defs>
      <path d="M 63.5 69.109375 
C 63.5 70 62.796875 70 62.59375 70 
C 62.203125 70 62.09375 69.90625 60.90625 68.40625 
C 60.296875 67.703125 56.203125 62.515625 56.09375 62.421875 
C 52.796875 68.90625 46.203125 70 42 70 
C 29.296875 70 17.796875 58.484375 17.796875 47.265625 
C 17.796875 39.828125 22.296875 35.453125 27.203125 33.765625 
C 28.296875 33.359375 34.203125 31.765625 37.203125 31.078125 
C 42.296875 29.6875 43.59375 29.296875 45.703125 27.109375 
C 46.09375 26.609375 48.09375 24.328125 48.09375 19.65625 
C 48.09375 10.421875 39.5 0.890625 29.5 0.890625 
C 21.296875 0.890625 12.203125 4.375 12.203125 15.484375 
C 12.203125 17.375 12.59375 19.765625 12.90625 20.75 
C 12.90625 21.0625 13 21.53125 13 21.734375 
C 13 22.140625 12.796875 22.640625 12 22.640625 
C 11.09375 22.640625 11 22.4375 10.59375 20.75 
L 5.5 0.375 
C 5.5 0.28125 5.09375 -1 5.09375 -1.109375 
C 5.09375 -2 5.90625 -2 6.09375 -2 
C 6.5 -2 6.59375 -1.90625 7.796875 -0.40625 
L 12.40625 5.5625 
C 14.796875 1.96875 20 -2 29.296875 -2 
C 42.203125 -2 54 10.40625 54 22.8125 
C 54 27 53 30.671875 49.203125 34.328125 
C 47.09375 36.421875 45.296875 36.921875 36.09375 39.3125 
C 29.40625 41.09375 28.5 41.390625 26.703125 42.984375 
C 25 44.65625 23.703125 47.046875 23.703125 50.421875 
C 23.703125 58.765625 32.203125 67.3125 41.703125 67.3125 
C 51.5 67.3125 56.09375 61.34375 56.09375 51.921875 
C 56.09375 49.34375 55.59375 46.65625 55.59375 46.265625 
C 55.59375 45.359375 56.40625 45.359375 56.703125 45.359375 
C 57.59375 45.359375 57.703125 45.65625 58.09375 47.25 
z
" id="CMMI12-83"/>
      <path d="M 26.796875 32 
L 30.40625 32 
L 45.40625 8.734375 
C 46.40625 7.109375 48.796875 3.21875 49.90625 1.703125 
C 50.59375 0.5 50.90625 0.5 53.203125 0.5 
L 67 0.5 
C 68.796875 0.5 70.296875 0.5 70.296875 2.296875 
C 70.296875 3.09375 69.703125 3.796875 68.796875 4 
C 65.09375 4.796875 60.203125 11.4375 57.796875 14.625 
C 57.09375 15.640625 52.09375 22.265625 45.40625 33.09375 
C 54.296875 34.6875 62.90625 38.484375 62.90625 50.34375 
C 62.90625 64.21875 48.203125 69 36.40625 69 
L 5 69 
C 3.203125 69 1.59375 69 1.59375 67.203125 
C 1.59375 65.5 3.5 65.5 4.296875 65.5 
C 10 65.5 10.5 64.796875 10.5 59.796875 
L 10.5 9.703125 
C 10.5 4.703125 10 4 4.296875 4 
C 3.5 4 1.59375 4 1.59375 2.296875 
C 1.59375 0.5 3.203125 0.5 5 0.5 
L 32.40625 0.5 
C 34.203125 0.5 35.703125 0.5 35.703125 2.296875 
C 35.703125 4 34 4 32.90625 4 
C 27.203125 4 26.796875 4.796875 26.796875 9.71875 
z
M 46.09375 36.796875 
C 48.90625 40.5 49.203125 45.796875 49.203125 50.203125 
C 49.203125 55 48.59375 60.296875 45.40625 64.40625 
C 49.5 63.5 59.40625 60.40625 59.40625 50.296875 
C 59.40625 43.796875 56.40625 38.703125 46.09375 36.796875 
z
M 26.796875 60.109375 
C 26.796875 62.21875 26.796875 65.5 33 65.5 
C 41.5 65.5 45.703125 62.015625 45.703125 50.25 
C 45.703125 37.390625 42.59375 35.5 26.796875 35.5 
z
M 13.203125 4 
C 14 5.796875 14 8.59375 14 9.5 
L 14 60 
C 14 61 14 63.703125 13.203125 65.5 
L 24.59375 65.5 
C 23.296875 63.90625 23.296875 61.90625 23.296875 60.40625 
L 23.296875 9.5 
C 23.296875 8.5 23.296875 5.796875 24.09375 4 
z
M 34.5 31.8125 
C 35.203125 31.90625 35.59375 32 36.40625 32 
C 37.90625 32 40.09375 32.296875 41.59375 32.59375 
C 43.09375 30.1875 53.90625 12.328125 62.203125 4 
L 52.5 4 
z
" id="MSBM10-82"/>
      <path d="M 74.703125 69.109375 
C 74.703125 70 74 70 73.796875 70 
C 73.59375 70 73.203125 70 72.40625 69 
L 65.5 60.65625 
C 62 66.625 56.5 70 49 70 
C 27.40625 70 5 48.25 5 24.921875 
C 5 8.328125 16.703125 -2 31.296875 -2 
C 39.296875 -2 46.296875 1.375 52.09375 6.25 
C 60.796875 13.484375 63.40625 23.140625 63.40625 23.921875 
C 63.40625 24.8125 62.59375 24.8125 62.296875 24.8125 
C 61.40625 24.8125 61.296875 24.21875 61.09375 23.8125 
C 56.5 8.34375 43 0.890625 33 0.890625 
C 22.40625 0.890625 13.203125 7.640625 13.203125 21.734375 
C 13.203125 24.921875 14.203125 42.1875 25.5 55.1875 
C 31 61.546875 40.40625 67.109375 49.90625 67.109375 
C 60.90625 67.109375 65.796875 58.078125 65.796875 47.9375 
C 65.796875 45.359375 65.5 43.1875 65.5 42.78125 
C 65.5 41.890625 66.5 41.890625 66.796875 41.890625 
C 67.90625 41.890625 68 41.984375 68.40625 43.765625 
z
" id="CMMI12-67"/>
      <path d="M 41.703125 61.09375 
C 42.296875 63.5 42.5 64.390625 44 64.796875 
C 44.796875 65 48.09375 65 50.203125 65 
C 60.203125 65 64.90625 64.59375 64.90625 56.78125 
C 64.90625 55.265625 64.5 51.484375 63.90625 47.765625 
L 63.796875 46.5625 
C 63.796875 46.15625 64.203125 45.5625 64.796875 45.5625 
C 65.796875 45.5625 65.796875 46.0625 66.09375 47.65625 
L 69 65.375 
C 69.203125 66.296875 69.203125 66.5 69.203125 66.796875 
C 69.203125 67.890625 68.59375 67.890625 66.59375 67.890625 
L 11.90625 67.890625 
C 9.59375 67.890625 9.5 67.796875 8.90625 66 
L 2.796875 47.96875 
C 2.703125 47.75 2.40625 46.65625 2.40625 46.5625 
C 2.40625 46.0625 2.796875 45.5625 3.40625 45.5625 
C 4.203125 45.5625 4.40625 45.953125 4.796875 47.25 
C 9 59.390625 11.09375 65 24.40625 65 
L 31.09375 65 
C 33.5 65 34.5 65 34.5 63.890625 
C 34.5 63.578125 34.5 63.390625 34 61.578125 
L 20.59375 7.796875 
C 19.59375 3.890625 19.40625 2.890625 8.796875 2.890625 
C 6.296875 2.890625 5.59375 2.890625 5.59375 1 
C 5.59375 0 6.703125 0 7.203125 0 
C 9.703125 0 12.296875 0 14.796875 0 
L 30.40625 0 
C 32.90625 0 35.59375 0 38.09375 0 
C 39.203125 0 40.203125 0 40.203125 1.890625 
C 40.203125 2.890625 39.5 2.890625 36.90625 2.890625 
C 27.90625 2.890625 27.90625 3.796875 27.90625 5.296875 
C 27.90625 5.40625 27.90625 6.109375 28.296875 7.71875 
z
" id="CMMI12-84"/>
     </defs>
     <use transform="scale(0.996264)" xlink:href="#CMMI12-83"/>
     <use transform="translate(65.794439 36.153639)scale(0.697382)" xlink:href="#CMR17-49"/>
     <use transform="translate(98.275753 0)scale(0.996264)" xlink:href="#CMMI12-83"/>
     <use transform="translate(164.070192 36.153639)scale(0.697382)" xlink:href="#CMR17-50"/>
     <use transform="translate(196.551506 0)scale(0.996264)" xlink:href="#MSBM10-82"/>
     <use transform="translate(268.504096 36.153639)scale(0.697382)" xlink:href="#CMR17-49"/>
     <use transform="translate(300.98541 0)scale(0.996264)" xlink:href="#MSBM10-82"/>
     <use transform="translate(372.938 36.153639)scale(0.697382)" xlink:href="#CMR17-50"/>
     <use transform="translate(405.419314 0)scale(0.996264)" xlink:href="#CMMI12-67"/>
     <use transform="translate(482.36616 0)scale(0.996264)" xlink:href="#CMMI12-84"/>
     <use transform="translate(553.089793 36.153639)scale(0.697382)" xlink:href="#CMR17-50"/>
    </g>
   </g>
  </g>
 </g>
</svg>
